<svg width="1753" height="216" viewBox="0 0 1753 216" fill="none" xmlns="http://www.w3.org/2000/svg">
<path d="M112.278 213.052V41.0001H179.5V0.430176H0.34082V41.0001H67.2664V213.052H112.278Z" fill="black"/>
<path d="M357.327 173.963H259.308V123.029H346.37V84.2354H259.308V39.5195H355.254V0.430176H214.296V213.052H357.327V173.963Z" fill="black"/>
<path d="M505.186 213C564.609 213 611.14 177.405 619 124.44H568.381C562.721 153.77 537.883 174.272 505.814 174.272C467.142 174.272 441.047 146.366 441.047 106.215C441.047 66.3488 467.142 38.7272 505.814 38.7272C537.883 38.7272 563.036 58.9451 568.381 88.2753H619C611.14 35.8796 564.609 0 505.186 0C441.675 0 392 46.4157 392 106.215C392 166.299 441.675 213 505.186 213Z" fill="black"/>
<path d="M700.959 213V122.816H797.041V213H844V0H797.041V83.954H700.959V0H654V213H700.959Z" fill="black"/>
<path d="M1002.96 97.1425C989.608 82.6188 983.671 74.6159 983.671 63.649C983.671 51.4964 992.279 42.9007 1003.85 42.9007C1016.02 42.9007 1024.63 50.3108 1026.11 64.2417H1064.4C1064.11 31.6374 1040.06 10 1003.85 10C967.941 10 941.228 32.5266 941.228 63.3525C941.228 75.5051 944.79 86.1756 952.21 96.5497C929.653 109.295 916 128.264 916 150.791C916 190.51 944.494 216 989.015 216C1008.6 216 1026.71 208.59 1042.74 194.659L1060.25 213.333H1111L1066.48 165.315C1075.38 148.716 1081.32 128.264 1081.62 110.481H1043.92C1043.63 119.966 1042.74 129.451 1040.95 138.046L1002.96 97.1425ZM955.475 148.42C955.475 136.268 962.302 126.487 973.284 120.855L1021.66 172.133C1013.35 178.95 1002.96 182.506 991.982 182.506C967.941 182.506 955.475 167.39 955.475 148.42Z" fill="black"/>
<path d="M1321 216V175.549H1228.88V4H1184V216H1321Z" fill="black"/>
<path d="M1402 216V3H1357V216H1402Z" fill="black"/>
<path d="M1482.88 216V135.097H1560.53V96.4178H1482.88V42.9749H1575V4H1438V216H1482.88Z" fill="black"/>
<path d="M1753 178.128H1655V128.78H1742.04V91.1949H1655V47.8719H1750.93V10H1610V216H1753V178.128Z" fill="black"/>
</svg>
